HIERARCHY
ROOT Hips
{
  OFFSET 3.13124 94.3669 -3.18751
  CHANNELS  6 Xposition Yposition Zposition Zrotation Xrotation Yrotation
  JOINT LeftUpLeg
  {
    OFFSET 8.64259 1.95398 -2.38835
    CHANNELS 3 Zrotation Xrotation Yrotation
    JOINT LeftLeg
    {
      OFFSET 43.7702 0 0
      CHANNELS 3 Zrotation Xrotation Yrotation
      JOINT LeftFoot
      {
        OFFSET 40.6238 0 0
        CHANNELS 3 Zrotation Xrotation Yrotation
        JOINT LeftToeBase
        {
          OFFSET 12.7242 0 0
          CHANNELS 3 Zrotation Xrotation Yrotation
          End Site
          {
            OFFSET 0 0 0
          }
        }
      }
    }
  }
  JOINT RightUpLeg
  {
    OFFSET -8.2249 1.95398 -2.59336
    CHANNELS 3 Zrotation Xrotation Yrotation
    JOINT RightLeg
    {
      OFFSET 43.5653 0 0
      CHANNELS 3 Zrotation Xrotation Yrotation
      JOINT RightFoot
      {
        OFFSET 40.6238 0 0
        CHANNELS 3 Zrotation Xrotation Yrotation
        JOINT RightToeBase
        {
          OFFSET 12.7242 0 0
          CHANNELS 3 Zrotation Xrotation Yrotation
          End Site
          {
            OFFSET 0 0 0
          }
        }
      }
    }
  }
  JOINT Spine
  {
    OFFSET 0.165834 0.87714 6.61349
    CHANNELS 3 Zrotation Xrotation Yrotation
    JOINT Spine1
    {
      OFFSET 7.38962 1.71661e-005 0
      CHANNELS 3 Zrotation Xrotation Yrotation
      JOINT Spine2
      {
        OFFSET 11.9445 1.14441e-005 0
        CHANNELS 3 Zrotation Xrotation Yrotation
        JOINT Spine3
        {
          OFFSET 14.7254 4.19617e-005 0
          CHANNELS 3 Zrotation Xrotation Yrotation
          JOINT Spine4
          {
            OFFSET 10.9679 0 0
            CHANNELS 3 Zrotation Xrotation Yrotation
            JOINT RightShoulder
            {
              OFFSET 2.46616 -1.6653 3.69651
              CHANNELS 3 Zrotation Xrotation Yrotation
              JOINT RightArm
              {
                OFFSET 13.0012 0 0
                CHANNELS 3 Zrotation Xrotation Yrotation
                JOINT RightForeArm
                {
                  OFFSET 28.7848 1.52588e-005 0
                  CHANNELS 3 Zrotation Xrotation Yrotation
                  JOINT RightHand
                  {
                    OFFSET 26.5688 1.52588e-005 0
                    CHANNELS 3 Zrotation Xrotation Yrotation
                    End Site
                    {
                      OFFSET 0 0 0
                    }
                  }
                }
              }
            }
            JOINT LeftShoulder
            {
              OFFSET 2.38034 -1.29275 -3.75231
              CHANNELS 3 Zrotation Xrotation Yrotation
              JOINT LeftArm
              {
                OFFSET 16.3182 6.10352e-005 0
                CHANNELS 3 Zrotation Xrotation Yrotation
                JOINT LeftForeArm
                {
                  OFFSET 27.0901 0 0
                  CHANNELS 3 Zrotation Xrotation Yrotation
                  JOINT LeftHand
                  {
                    OFFSET 24.5451 1.52588e-005 0
                    CHANNELS 3 Zrotation Xrotation Yrotation
                    End Site
                    {
                      OFFSET 0 0 0
                    }
                  }
                }
              }
            }
            JOINT Neck
            {
              OFFSET 5.0226 -0.0266342 0
              CHANNELS 3 Zrotation Xrotation Yrotation
              JOINT Head
              {
                OFFSET 6.69363 2.86102e-005 0
                CHANNELS 3 Zrotation Xrotation Yrotation
                End Site
                {
                  OFFSET 0 0 0
                }
              }
            }
          }
        }
      }
    }
  }
}
MOTION
Frames:	11
Frame Time:	0.0333333
1.03414 97.8454 -17.0442 18.5189 -89.9899 18.5832 -171.761 2.79976 92.1519 -8.87874 8.10961 1.09093 63.3488 1.51346 0.786282 28.7808 5.0425e-006 4.57155e-006 179.544 1.90376 89.3442 -7.61108 -0.32676 -0.0205569 62.7372 -1.21756 -0.615835 28.7808 1.56924e-005 3.30165e-005 0.00509321 6.34581 -90.0644 14.1935 1.81253e-006 5.62595e-006 2.52251 5.16565e-006 -4.14462e-006 -20.0126 0.00358976 -1.06137e-006 -1.76833e-022 0.00359944 2.81482e-018 100.861 -18.7781 -85.3875 -9.72051 40.4558 -7.16509 -1.0166 0.20661 -2.7671 -5.37983 -0.320008 -0.0162402 -79.0152 -21.5293 94.2487 20.1912 -39.2405 -1.24986 -0.543894 39.1246 -2.50433 0.403489 0.0128317 -0.422563 1.7551 -0.00209897 0.00395971 -7.41483 -0.00304271 0.00936069 
1.0505 97.8462 -17.0413 67.4531 -89.975 67.5171 -171.761 2.81778 92.1425 -8.90375 8.14454 1.09102 63.3428 1.51396 0.786628 28.7808 5.0425e-006 4.57155e-006 179.544 1.95824 89.3349 -7.72015 -0.301314 -0.0205569 62.7777 -1.2105 -0.612748 28.7808 1.56924e-005 3.30165e-005 0.00457615 6.34587 -90.0576 14.1935 1.81253e-006 5.62595e-006 2.52251 5.16565e-006 -4.14462e-006 -20.0126 0.00358976 -1.06137e-006 6.36111e-015 0.00359944 4.65902e-018 100.834 -18.7694 -85.4412 -9.70953 40.439 -7.13293 -1.04146 0.20661 -2.77024 -5.37983 -0.320008 -0.0162402 -79.0033 -21.5736 94.2889 20.2578 -39.1767 -1.21271 -0.55458 38.8165 -2.68007 0.468467 0.0120317 -0.213146 1.77481 -0.036511 0.0753079 -7.47651 -0.0526286 0.149328 
1.06874 97.8506 -17.0366 78.4361 -89.9536 78.5165 -171.765 2.79387 92.1451 -8.84724 8.1691 1.09081 63.3277 1.52479 0.793633 28.7808 5.0425e-006 4.57155e-006 179.54 1.72921 89.3373 -7.25216 -0.287994 -0.0205568 62.5673 -1.17716 -0.589507 28.7808 1.56924e-005 3.30165e-005 0.00549107 6.34575 -90.0692 14.1935 1.81253e-006 5.62595e-006 2.52251 5.16565e-006 -4.14462e-006 -20.0126 0.00358976 -1.06137e-006 1.59028e-015 0.00359944 1.55301e-018 100.854 -18.8187 -85.3983 -9.66619 40.4737 -7.26028 -1.06579 0.206613 -2.75046 -5.37983 -0.320008 -0.0162402 -79.0537 -21.5157 94.1588 20.2522 -39.1843 -1.06638 -0.444359 38.9522 -2.6722 0.337044 -9.99395e-005 -0.54451 1.76174 -0.0781485 0.266319 -7.52617 -0.111199 0.143257 
1.08132 97.846 -17.034 88.6336 -89.9561 88.6955 -171.765 2.80782 92.123 -8.9056 8.18195 1.08606 63.3485 1.57059 0.818966 28.7808 5.0425e-006 4.57155e-006 179.533 1.94584 89.3124 -7.7216 -0.307079 -0.0205569 62.7978 -1.23162 -0.625446 28.7808 1.56924e-005 3.30165e-005 0.00438732 6.34589 -90.0555 14.1935 1.81253e-006 5.62595e-006 2.52251 5.16565e-006 -4.14462e-006 -20.0126 0.00358976 -1.06137e-006 1.59028e-015 0.00359944 4.65902e-018 100.838 -18.813 -85.3945 -9.6332 40.4485 -7.30333 -1.05204 0.206614 -2.74223 -5.37983 -0.320008 -0.0162402 -79.0566 -21.4983 94.1903 20.2626 -39.1222 -1.08605 -0.437274 38.7139 -2.83143 -0.0287543 -0.00152333 -0.0232612 1.78366 -0.0698406 0.455688 -7.60873 -0.128121 0.155525 
1.09438 97.8543 -17.0312 102.598 -89.9652 102.679 -171.768 2.77189 92.1355 -8.84751 8.12826 1.0757 63.3234 1.52 0.790614 28.7808 5.0425e-006 4.57155e-006 179.538 1.58396 89.3308 -6.99166 -0.250497 -0.0205568 62.4665 -1.19036 -0.595862 28.7808 1.56924e-005 3.30165e-005 0.00540092 6.34577 -90.0681 14.1935 1.81253e-006 5.62595e-006 2.52251 5.16565e-006 -4.14462e-006 -20.0126 0.00358976 -1.06137e-006 3.18055e-015 0.00359944 5.43552e-018 100.823 -18.7769 -85.3819 -9.52035 40.4411 -7.38268 -1.07417 0.206617 -2.72664 -5.37983 -0.320008 -0.0162402 -79.0742 -21.4942 94.1976 20.246 -39.1857 -1.11708 -0.413827 38.754 -2.82263 0.160353 0.00651335 0.0182303 1.80456 -0.0104564 0.598854 -7.66969 -0.0967607 0.204669 
1.10214 97.8455 -17.0326 132.616 -89.9654 132.686 -171.769 2.7859 92.1193 -8.91761 8.13229 1.07142 63.3559 1.53476 0.798193 28.7808 5.0425e-006 4.57155e-006 179.536 1.87328 89.313 -7.6216 -0.262375 -0.0205568 62.756 -1.18323 -0.597014 28.7808 1.56924e-005 3.30165e-005 0.00416193 6.34591 -90.0529 14.1935 1.81253e-006 5.62595e-006 2.52251 5.16565e-006 -4.14462e-006 -20.0126 0.00358976 -1.06137e-006 3.18055e-015 0.00359944 1.2424e-017 100.805 -18.775 -85.381 -9.50471 40.4208 -7.38891 -1.06605 0.206618 -2.72099 -5.37983 -0.320008 -0.0162402 -79.0903 -21.5489 94.208 20.3451 -39.1526 -1.08407 -0.528971 38.6071 -2.81148 0.537632 0.0194517 -0.0415012 1.81056 0.0784874 0.747593 -7.69262 -0.0352641 0.171826 
1.11148 97.8497 -17.0325 153.214 -89.958 153.287 -171.77 2.77874 92.1157 -8.93524 8.10553 1.07026 63.3585 1.53078 0.795529 28.7808 5.0425e-006 4.57155e-006 179.538 1.77899 89.3123 -7.45453 -0.2245 -0.0205567 62.6953 -1.15315 -0.578571 28.7808 1.56924e-005 3.30165e-005 0.00397084 6.34593 -90.0506 14.1935 1.81253e-006 5.62595e-006 2.52251 5.16565e-006 -4.14462e-006 -20.0126 0.00358976 -1.06137e-006 1.59028e-015 0.00359944 2.32951e-018 100.785 -18.7692 -85.3861 -9.49181 40.4215 -7.39175 -1.07136 0.20662 -2.70664 -5.37983 -0.320008 -0.0162402 -79.1216 -21.5425 94.1735 20.3045 -39.2178 -1.08939 -0.338157 38.7248 -2.93272 0.162827 0.00908169 0.12835 1.82989 0.140925 0.740715 -7.69808 0.0298819 0.341472 
1.12008 97.8464 -17.0352 150.046 -89.9853 150.128 -171.774 2.78904 92.1167 -8.9006 8.08621 1.07342 63.3522 1.50779 0.782971 28.7808 5.0425e-006 4.57155e-006 179.534 1.81495 89.3121 -7.46788 -0.271632 -0.0205568 62.6784 -1.19986 -0.60555 28.7808 1.56924e-005 3.30165e-005 0.00438617 6.34589 -90.0557 14.1935 1.81253e-006 5.62595e-006 2.52251 5.16565e-006 -4.14462e-006 -20.0126 0.00358976 -1.06137e-006 -1.59028e-015 0.00359944 2.52363e-018 100.817 -18.7708 -85.3549 -9.4864 40.4184 -7.41306 -1.06924 0.206619 -2.71761 -5.37983 -0.320008 -0.0162402 -79.089 -21.5725 94.2099 20.3196 -39.1256 -1.07507 -0.525137 38.513 -2.89969 0.614731 0.0279741 0.173353 1.89847 0.218481 0.759721 -7.71675 0.0859782 0.466883 
1.12642 97.8535 -17.0373 -176.947 -89.9642 -176.861 -171.765 2.76375 92.1231 -8.89984 8.14975 1.08561 63.3388 1.59119 0.830767 28.7808 5.0425e-006 4.57155e-006 179.534 1.61988 89.3116 -7.11384 -0.283167 -0.0205818 62.528 -1.09203 -0.539958 28.7808 1.56924e-005 3.30165e-005 0.00458947 6.34586 -90.0584 14.1935 1.81253e-006 -4.03189e-005 2.52253 5.16565e-006 -4.97509e-005 -20.0126 0.00358976 -4.59067e-005 2.17393e-005 0.00359944 -4.50956e-005 100.793 -18.7917 -85.382 -9.53126 40.4559 -7.39206 -1.08389 0.206619 -2.71816 -5.37983 -0.320008 -0.0162402 -79.1146 -21.6101 94.1739 20.277 -39.2151 -1.0709 -0.276927 38.441 -3.07381 0.160742 0.0125218 0.287814 1.88419 0.256048 0.812686 -7.6788 0.132852 0.516358 
1.13662 97.8452 -17.0458 -138.211 -89.9576 -138.134 -171.782 2.78686 92.1 -8.94346 8.10219 1.09685 63.3648 1.58183 0.824823 28.7808 5.0425e-006 4.57155e-006 179.529 1.88403 89.2969 -7.62776 -0.327937 -0.0210009 62.7546 -1.17118 -0.590103 28.7808 1.56924e-005 3.30165e-005 0.00370733 6.34595 -90.0476 14.193 0.000160795 0.000906486 2.52208 0.000233686 0.000892766 -20.0131 0.00358976 0.000890863 -0.000432093 0.00359944 0.00088765 100.79 -18.7974 -85.3918 -9.54463 40.4668 -7.3946 -1.08288 0.206615 -2.73833 -5.37983 -0.320008 -0.0162402 -79.0652 -21.6405 94.2834 20.1563 -39.2381 -1.18455 -0.0902495 37.9967 -3.24919 -0.53308 -0.0155599 0.29353 1.93054 0.297077 0.834154 -7.69244 0.167571 0.561429 
1.14231 97.8429 -17.0515 -140.608 -89.9452 -140.532 -171.781 2.79088 92.0977 -8.96838 8.08606 1.0918 63.3782 1.55075 0.80682 28.7808 5.0425e-006 4.57155e-006 179.526 1.92671 89.2897 -7.72858 -0.360134 -0.0214516 62.7949 -1.20701 -0.611751 28.7808 1.56924e-005 3.30165e-005 0.00174983 6.34605 -90.0314 14.181 0.00297968 0.0260284 2.5101 0.00412133 0.0258548 -20.0251 0.00358976 0.0257181 -0.0124127 0.00359944 0.0257115 100.875 -18.7972 -85.339 -9.34612 40.4479 -7.50367 -1.14404 0.206619 -2.71696 -5.37983 -0.320008 -0.0162402 -79.0739 -21.5965 94.1311 20.2349 -39.219 -1.04361 -0.269547 38.4203 -3.11215 0.280396 0.0231444 0.538306 1.98808 0.326541 0.69949 -7.66625 0.186804 0.608769 
